<svg xmlns="http://www.w3.org/2000/svg" width="65.903" height="80.552" viewBox="0 0 65.903 80.552">
  <g id="business-report_1_" data-name="business-report (1)" transform="translate(-6.3 -1.8)">
    <path id="Path_12255" data-name="Path 12255" d="M12.167,82.143c3.911,0,57.039.326,53.617.163a14.462,14.462,0,0,0,2.445-.326A6,6,0,0,0,71.813,78.4a4.445,4.445,0,0,0,.326-2.445V72.2c0,1.63-.163-23.63-.326-61.276V7.015a5.1,5.1,0,0,0-2.119-4.074,5.051,5.051,0,0,0-2.119-.978A10.817,10.817,0,0,0,65.458,1.8c-.326,0-12.223.163-11.408.163-10.267.163-20.371.489-30.638.652s-.163,0-.163.163l-7.5,7.985,7.66-7.171a33.37,33.37,0,0,0-1.141,6.845c-.163,1.3-.163,2.445-.326,3.748a2.628,2.628,0,0,1-.978,2.119,5.051,5.051,0,0,1-2.119.978c-1.3.163-2.445.163-3.748.326a33.37,33.37,0,0,0-6.845,1.141l7.334-7.822-8.148,7.66-.163.163c-.163,10.267-.489,20.371-.652,30.638,0,.163-.326,27.542-.326,27.216v.652a5.691,5.691,0,0,0,5.867,4.889Zm2.77-62.417c1.3.163,2.445.163,3.748.326a5.166,5.166,0,0,0,4.4-1.793,6.6,6.6,0,0,0,1.793-4.4c-.163-1.3-.163-2.445-.326-3.748A34.908,34.908,0,0,0,23.412,3.1c10.1.163,20.208.489,30.475.652.326,0,12.223.163,11.408.163a5.024,5.024,0,0,1,1.63.163,3.473,3.473,0,0,1,2.445,3.259v3.748c0,.163-.489,65.35-.326,61.276v3.748a3.177,3.177,0,0,1-.163,1.3,3.409,3.409,0,0,1-.652.978,2.838,2.838,0,0,1-2.282.815H39.22c-9.452,0-16.949,0-26.727.163-3.1.163-3.259-2.933-3.259-3.1-.489-10.593-.489-12.223-.489-11.9L8.582,49.061c-.163-10.1-.489-20.371-.652-30.475,2.282.489,4.563.815,7.008,1.141Z" fill="#1b212f"/>
    <path id="Path_12256" data-name="Path 12256" d="M12.693,59.875c7.822.163,15.645,0,23.467-.163,7.822-.326,15.645-.652,23.467-1.467-7.822-.815-15.645-1.141-23.467-1.467-7.334-.163-14.667-.326-22-.163,0-2.282-.163-4.563-.163-6.682,0-2.77-.163-5.541-.326-8.311l-.489-8.311c-.163-2.77-.326-5.541-.652-8.311-.326,2.77-.489,5.541-.652,8.311l-.489,8.311c-.163,2.77-.163,5.541-.326,8.311,0,2.77-.163,5.541-.163,8.311A1.777,1.777,0,0,0,12.693,59.875Z" transform="translate(2.897 14.609)" fill="#1b212f"/>
    <path id="Path_12257" data-name="Path 12257" d="M44.712,10.649a36.9,36.9,0,0,0,7.171-1.3,55.271,55.271,0,0,0-7.171-1.3,70.275,70.275,0,0,0-14.341,0,36.9,36.9,0,0,0-7.171,1.3,55.271,55.271,0,0,0,7.171,1.3A70.25,70.25,0,0,0,44.712,10.649Z" transform="translate(10.642 3.699)" fill="#1b212f"/>
    <path id="Path_12258" data-name="Path 12258" d="M44.712,16.049a36.9,36.9,0,0,0,7.171-1.3,55.271,55.271,0,0,0-7.171-1.3,70.276,70.276,0,0,0-14.341,0,36.9,36.9,0,0,0-7.171,1.3,55.272,55.272,0,0,0,7.171,1.3A70.25,70.25,0,0,0,44.712,16.049Z" transform="translate(10.642 7.1)" fill="#1b212f"/>
    <path id="Path_12259" data-name="Path 12259" d="M35.467,21.859c3.911,0,7.822-.163,11.734-.326a95.7,95.7,0,0,0,11.734-1.3c-3.911-.652-7.822-.978-11.734-1.3S39.379,18.6,35.467,18.6s-7.822.163-11.734.326A95.7,95.7,0,0,0,12,20.23c3.911.652,7.822.978,11.734,1.3,3.911.163,7.822.163,11.734.326Z" transform="translate(3.589 10.579)" fill="#1b212f"/>
    <path id="Path_12260" data-name="Path 12260" d="M49.734,25.278a1.627,1.627,0,0,0-.652-.815,1.555,1.555,0,0,0-1.956.489c-.978,1.956-3.422,6.193-7.008,13.2-1.141,2.119-2.282,4.4-3.422,6.682l-2.119,4.237c-4.726-7.171-7.822-11.734-7.985-11.9,0-.163-.163-.163-.326-.326a1.061,1.061,0,0,0-1.467.326C21.7,42.064,18.77,46.953,16,52c3.259-4.074,6.519-8.148,9.615-12.223l7.822,13.2c.163.163.326.489.652.489a1.6,1.6,0,0,0,2.119-.652l3.422-6.682c1.141-2.282,2.282-4.4,3.422-6.682,1.793-3.422,3.422-6.845,5.052-10.1.326.978.652,2.119.978,3.1L51.2,38.967c1.467,4.4,2.933,8.8,4.4,13.037-.815-4.563-1.63-9.126-2.607-13.526l-1.63-6.519c-.489-2.282-.978-4.563-1.63-6.682Z" transform="translate(6.108 14.168)" fill="#1b212f"/>
  </g>
</svg>
